<svg width="64" height="64" viewBox="0 0 64 64" fill="none" xmlns="http://www.w3.org/2000/svg">
  <rect width="64" height="64" rx="18" fill="#0F172A"/>
  <rect x="10" y="10" width="44" height="44" rx="14" fill="url(#bg)"/>
  <path d="M19 24C19 21.7909 20.7909 20 23 20H41C43.2091 20 45 21.7909 45 24V36C45 38.2091 43.2091 40 41 40H31.8L26 45.2C25.3532 45.7791 24.3333 45.32 24.3333 44.4519V40H23C20.7909 40 19 38.2091 19 36V24Z" fill="#F8FAFC"/>
  <rect x="24" y="25.5" width="16" height="2.6" rx="1.3" fill="#94A3B8"/>
  <rect x="24" y="30.5" width="8" height="2.6" rx="1.3" fill="#22C55E"/>
  <rect x="33.5" y="30.5" width="6.5" height="2.6" rx="1.3" fill="#BBF7D0"/>
  <circle cx="42" cy="44" r="8" fill="#F8FAFC"/>
  <circle cx="42" cy="44" r="6.2" fill="#166534"/>
  <path d="M38.8 44.1L41.2 46.5L45.3 42.4" stroke="#DCFCE7" stroke-width="2.4" stroke-linecap="round" stroke-linejoin="round"/>
  <defs>
    <linearGradient id="bg" x1="12" y1="12" x2="52" y2="52" gradientUnits="userSpaceOnUse">
      <stop stop-color="#166534"/>
      <stop offset="1" stop-color="#22C55E"/>
    </linearGradient>
  </defs>
</svg>
