<svg width="160" height="160" viewBox="0 0 160 160" fill="none" xmlns="http://www.w3.org/2000/svg">
  <rect width="160" height="160" rx="36" fill="#F0FDF4"/>
  <rect x="10" y="10" width="140" height="140" rx="30" fill="url(#panel)"/>
  <path d="M36 54C36 45.1634 43.1634 38 52 38H108C116.837 38 124 45.1634 124 54V88C124 96.8366 116.837 104 108 104H88L69 120.5C67.6851 121.642 65.6667 120.708 65.6667 118.966V104H52C43.1634 104 36 96.8366 36 88V54Z" fill="#F8FAFC"/>
  <rect x="54" y="56" width="52" height="8" rx="4" fill="#94A3B8"/>
  <rect x="54" y="72" width="18" height="8" rx="4" fill="#22C55E"/>
  <rect x="76" y="72" width="20" height="8" rx="4" fill="#BBF7D0"/>
  <rect x="54" y="88" width="28" height="8" rx="4" fill="#E2E8F0"/>
  <circle cx="104" cy="110" r="22" fill="#F8FAFC"/>
  <circle cx="104" cy="110" r="17" fill="#166534"/>
  <path d="M95 110L101.5 116.5L113 105" stroke="#DCFCE7" stroke-width="6" stroke-linecap="round" stroke-linejoin="round"/>
  <defs>
    <linearGradient id="panel" x1="18" y1="18" x2="142" y2="142" gradientUnits="userSpaceOnUse">
      <stop stop-color="#15803D"/>
      <stop offset="1" stop-color="#4ADE80"/>
    </linearGradient>
  </defs>
</svg>
